<svg width="141" height="80" viewBox="0 0 141 80" fill="none" xmlns="http://www.w3.org/2000/svg">
<path d="M127.418 77.1937C127.418 77.9118 126.841 78.4938 126.129 78.4938C125.418 78.4938 124.841 77.9118 124.841 77.1937C124.841 76.4757 125.418 75.8937 126.129 75.8937C126.841 75.8937 127.418 76.4757 127.418 77.1937Z" fill="white"/>
<path d="M28.6531 74.7827H29.8297V79.9121H28.6531V74.7827ZM26.3435 79.9121H25.1669V74.7827H26.3435V79.9121ZM28.7403 77.809H26.2563V76.8051H28.7403V77.809Z" fill="white"/>
<path d="M35.8988 80C35.497 80 35.1241 79.9341 34.7803 79.8022C34.4414 79.6703 34.146 79.4846 33.8943 79.2453C33.6473 79.0059 33.4536 78.725 33.3132 78.4026C33.1776 78.0802 33.1098 77.7284 33.1098 77.3474C33.1098 76.9663 33.1776 76.6146 33.3132 76.2922C33.4536 75.9698 33.6497 75.6889 33.9015 75.4495C34.1533 75.2102 34.4487 75.0245 34.7876 74.8926C35.1265 74.7607 35.4945 74.6948 35.8916 74.6948C36.2935 74.6948 36.6615 74.7607 36.9956 74.8926C37.3345 75.0245 37.6275 75.2102 37.8744 75.4495C38.1262 75.6889 38.3223 75.9698 38.4627 76.2922C38.6031 76.6097 38.6733 76.9615 38.6733 77.3474C38.6733 77.7284 38.6031 78.0826 38.4627 78.4099C38.3223 78.7323 38.1262 79.0132 37.8744 79.2526C37.6275 79.4871 37.3345 79.6703 36.9956 79.8022C36.6615 79.9341 36.2959 80 35.8988 80ZM35.8916 78.9888C36.1192 78.9888 36.3274 78.9497 36.5162 78.8715C36.7099 78.7934 36.8794 78.681 37.0246 78.5345C37.1699 78.3879 37.2812 78.2145 37.3587 78.0142C37.441 77.8139 37.4822 77.5916 37.4822 77.3474C37.4822 77.1031 37.441 76.8809 37.3587 76.6806C37.2812 76.4803 37.1699 76.3069 37.0246 76.1603C36.8842 76.0138 36.7172 75.9014 36.5235 75.8232C36.3298 75.7451 36.1192 75.706 35.8916 75.706C35.664 75.706 35.4534 75.7451 35.2597 75.8232C35.0709 75.9014 34.9038 76.0138 34.7586 76.1603C34.6133 76.3069 34.4995 76.4803 34.4172 76.6806C34.3397 76.8809 34.301 77.1031 34.301 77.3474C34.301 77.5868 34.3397 77.809 34.4172 78.0142C34.4995 78.2145 34.6109 78.3879 34.7513 78.5345C34.8965 78.681 35.066 78.7934 35.2597 78.8715C35.4534 78.9497 35.664 78.9888 35.8916 78.9888Z" fill="white"/>
<path d="M42.9366 79.9121V75.75H41.3097V74.7827H45.7402V75.75H44.1132V79.9121H42.9366Z" fill="white"/>
<path d="M49.8522 76.8491H52.2999V77.7724H49.8522V76.8491ZM49.9394 78.9595H52.7066V79.9121H48.77V74.7827H52.6122V75.7353H49.9394V78.9595Z" fill="white"/>
<path d="M56.0396 79.9121V74.7827H57.2162V78.9448H59.7655V79.9121H56.0396Z" fill="white"/>
<path d="M69.7066 80C69.3144 80 68.9488 79.9365 68.6099 79.8095C68.2758 79.6776 67.9853 79.492 67.7383 79.2526C67.4914 79.0132 67.2977 78.7323 67.1573 78.4099C67.0217 78.0875 66.9539 77.7333 66.9539 77.3474C66.9539 76.9615 67.0217 76.6073 67.1573 76.2849C67.2977 75.9625 67.4914 75.6816 67.7383 75.4422C67.9901 75.2028 68.283 75.0196 68.6171 74.8926C68.9512 74.7607 69.3168 74.6948 69.7139 74.6948C70.1545 74.6948 70.5515 74.7729 70.905 74.9293C71.2633 75.0807 71.5635 75.3054 71.8056 75.6034L71.0503 76.3069C70.8759 76.1066 70.6823 75.9576 70.4692 75.8599C70.2562 75.7573 70.0238 75.706 69.772 75.706C69.5347 75.706 69.3168 75.7451 69.1183 75.8232C68.9198 75.9014 68.7479 76.0138 68.6026 76.1603C68.4574 76.3069 68.3436 76.4803 68.2613 76.6806C68.1838 76.8809 68.145 77.1031 68.145 77.3474C68.145 77.5916 68.1838 77.8139 68.2613 78.0142C68.3436 78.2145 68.4574 78.3879 68.6026 78.5345C68.7479 78.681 68.9198 78.7934 69.1183 78.8715C69.3168 78.9497 69.5347 78.9888 69.772 78.9888C70.0238 78.9888 70.2562 78.9399 70.4692 78.8422C70.6823 78.7396 70.8759 78.5858 71.0503 78.3806L71.8056 79.084C71.5635 79.382 71.2633 79.6092 70.905 79.7655C70.5515 79.9218 70.1521 80 69.7066 80Z" fill="white"/>
<path d="M77.36 80C76.9581 80 76.5853 79.9341 76.2415 79.8022C75.9026 79.6703 75.6072 79.4846 75.3554 79.2453C75.1085 79.0059 74.9148 78.725 74.7744 78.4026C74.6388 78.0802 74.571 77.7284 74.571 77.3474C74.571 76.9663 74.6388 76.6146 74.7744 76.2922C74.9148 75.9698 75.1109 75.6889 75.3627 75.4495C75.6145 75.2102 75.9098 75.0245 76.2488 74.8926C76.5877 74.7607 76.9557 74.6948 77.3528 74.6948C77.7546 74.6948 78.1226 74.7607 78.4567 74.8926C78.7957 75.0245 79.0886 75.2102 79.3356 75.4495C79.5874 75.6889 79.7835 75.9698 79.9239 76.2922C80.0643 76.6097 80.1345 76.9615 80.1345 77.3474C80.1345 77.7284 80.0643 78.0826 79.9239 78.4099C79.7835 78.7323 79.5874 79.0132 79.3356 79.2526C79.0886 79.4871 78.7957 79.6703 78.4567 79.8022C78.1226 79.9341 77.7571 80 77.36 80ZM77.3528 78.9888C77.5803 78.9888 77.7885 78.9497 77.9774 78.8715C78.1711 78.7934 78.3405 78.681 78.4858 78.5345C78.6311 78.3879 78.7424 78.2145 78.8199 78.0142C78.9022 77.8139 78.9434 77.5916 78.9434 77.3474C78.9434 77.1031 78.9022 76.8809 78.8199 76.6806C78.7424 76.4803 78.6311 76.3069 78.4858 76.1603C78.3454 76.0138 78.1783 75.9014 77.9846 75.8232C77.791 75.7451 77.5803 75.706 77.3528 75.706C77.1252 75.706 76.9146 75.7451 76.7209 75.8232C76.532 75.9014 76.365 76.0138 76.2197 76.1603C76.0745 76.3069 75.9607 76.4803 75.8784 76.6806C75.8009 76.8809 75.7621 77.1031 75.7621 77.3474C75.7621 77.5868 75.8009 77.809 75.8784 78.0142C75.9607 78.2145 76.072 78.3879 76.2125 78.5345C76.3577 78.681 76.5272 78.7934 76.7209 78.8715C76.9146 78.9497 77.1252 78.9888 77.3528 78.9888Z" fill="white"/>
<path d="M83.4156 79.9121V74.7827H84.3888L86.5532 78.4026H86.0375L88.1656 74.7827H89.1316L89.1461 79.9121H88.0421L88.0349 76.4901H88.2382L86.5387 79.3698H86.0085L84.2726 76.4901H84.5196V79.9121H83.4156Z" fill="white"/>
<path d="M92.7492 79.9121V74.7827H94.9499C95.405 74.7827 95.7972 74.8584 96.1265 75.0099C96.4557 75.1564 96.7099 75.3689 96.8891 75.6474C97.0682 75.9258 97.1578 76.258 97.1578 76.6439C97.1578 77.025 97.0682 77.3547 96.8891 77.6332C96.7099 77.9116 96.4557 78.1266 96.1265 78.278C95.7972 78.4246 95.405 78.4978 94.9499 78.4978H93.4028L93.9258 77.9629V79.9121H92.7492ZM93.9258 78.0948L93.4028 77.5306H94.8845C95.2476 77.5306 95.5188 77.4524 95.6979 77.2961C95.8771 77.1398 95.9667 76.9224 95.9667 76.6439C95.9667 76.3606 95.8771 76.1408 95.6979 75.9844C95.5188 75.8281 95.2476 75.75 94.8845 75.75H93.4028L93.9258 75.1857V78.0948Z" fill="white"/>
<path d="M100.395 79.9121V74.7827H101.571V78.9448H104.121V79.9121H100.395Z" fill="white"/>
<path d="M108.257 76.8491H110.705V77.7724H108.257V76.8491ZM108.344 78.9595H111.111V79.9121H107.175V74.7827H111.017V75.7353H108.344V78.9595Z" fill="white"/>
<path d="M113.814 79.9121L116 76.8711V77.7358L113.908 74.7827H115.244L116.69 76.8418L116.131 76.8491L117.554 74.7827H118.832L116.755 77.6845V76.8345L118.956 79.9121H117.598L116.102 77.7358H116.639L115.165 79.9121H113.814Z" fill="white"/>
<path d="M21.2839 77.1937C21.2839 77.9118 20.707 78.4938 19.9953 78.4938C19.2837 78.4938 18.7067 77.9118 18.7067 77.1937C18.7067 76.4757 19.2837 75.8937 19.9953 75.8937C20.707 75.8937 21.2839 76.4757 21.2839 77.1937Z" fill="white"/>
<path d="M53.9491 15.0038L55.4639 16.7605L46.6517 26.6099L44.0102 26.6099L53.9491 15.0038Z" fill="white"/>
<path d="M52.4447 16.7605L53.9491 15.0038L63.925 26.5726H61.3869L52.4447 16.7605Z" fill="white"/>
<path d="M70.9352 3.78201L72.4501 5.53873L58.6535 21.6284L57.1306 19.8556L70.9352 3.78201Z" fill="white"/>
<path d="M69.4309 5.53873L70.9352 3.78201L81.0283 14.8917L79.2711 16.4281L69.4309 5.53873Z" fill="white"/>
<path d="M81.3612 7.56403L82.6497 8.98228L78.0997 13.4734L76.8111 12.1734L81.3612 7.56403Z" fill="white"/>
<path d="M79.6226 9.32529L81.3612 7.56403L98.2487 26.5923H95.5544L79.6226 9.32529Z" fill="white"/>
<path d="M83.7226 2.36376C83.7226 3.66923 82.6737 4.72752 81.3797 4.72752C80.0858 4.72752 79.0368 3.66923 79.0368 2.36376C79.0368 1.05829 80.0858 0 81.3797 0C82.6737 0 83.7226 1.05829 83.7226 2.36376Z" fill="white"/>
<path d="M0.870117 66.7937L10.5253 45.2835H13.5406L23.2262 66.7937H20.0281L11.4086 47.0043H12.6269L4.00728 66.7937H0.870117ZM4.98193 61.4162L5.8043 58.9579H17.8047L18.688 61.4162H4.98193Z" fill="white"/>
<path d="M34.9349 66.7937V45.2835H43.2499C45.118 45.2835 46.712 45.5806 48.0318 46.1747C49.3516 46.7688 50.3669 47.6292 51.0776 48.7559C51.7883 49.8826 52.1436 51.2244 52.1436 52.7814C52.1436 54.3383 51.7883 55.6801 51.0776 56.8069C50.3669 57.9131 49.3516 58.7633 48.0318 59.3573C46.712 59.9514 45.118 60.2485 43.2499 60.2485H36.6101L37.9807 58.835V66.7937H34.9349ZM49.1892 66.7937L43.7677 58.9886H47.0267L52.5091 66.7937H49.1892ZM37.9807 59.1422L36.6101 57.6365H43.1585C45.1078 57.6365 46.58 57.2166 47.5749 56.3766C48.5902 55.5162 49.0978 54.3178 49.0978 52.7814C49.0978 51.2449 48.5902 50.0567 47.5749 49.2168C46.58 48.3769 45.1078 47.9569 43.1585 47.9569H36.6101L37.9807 46.4205V59.1422Z" fill="white"/>
<path d="M62.3642 66.7937L72.0193 45.2835H75.0346L84.7203 66.7937H81.5222L72.9026 47.0043H74.1209L65.5013 66.7937H62.3642ZM66.476 61.4162L67.2983 58.9579H79.2987L80.182 61.4162H66.476Z" fill="white"/>
<path d="M99.1092 61.6006L98.957 57.8516L111.049 45.2835H114.521L105.17 55.2397L103.465 57.1449L99.1092 61.6006ZM96.4289 66.7937V45.2835H99.4747V66.7937H96.4289ZM111.536 66.7937L102.795 56.5303L104.835 54.2564L115.1 66.7937H111.536Z" fill="white"/>
<path d="M132.616 67.0396C130.992 67.0396 129.438 66.7937 127.956 66.3021C126.474 65.7899 125.306 65.1344 124.453 64.3354L125.58 61.9386C126.392 62.6556 127.428 63.2497 128.687 63.7208C129.946 64.192 131.256 64.4276 132.616 64.4276C133.855 64.4276 134.86 64.2842 135.631 63.9974C136.403 63.7106 136.972 63.3214 137.337 62.8297C137.702 62.3176 137.885 61.744 137.885 61.1089C137.885 60.3714 137.642 59.7773 137.154 59.3266C136.687 58.8759 136.068 58.5174 135.296 58.2511C134.545 57.9643 133.713 57.7185 132.799 57.5136C131.885 57.3088 130.961 57.0732 130.027 56.8069C129.113 56.52 128.271 56.1615 127.499 55.7313C126.748 55.3011 126.139 54.7275 125.672 54.0105C125.205 53.273 124.971 52.3307 124.971 51.1835C124.971 50.0772 125.255 49.0632 125.824 48.1413C126.413 47.199 127.306 46.4512 128.504 45.8981C129.723 45.3245 131.266 45.0377 133.134 45.0377C134.372 45.0377 135.601 45.2016 136.819 45.5294C138.038 45.8571 139.093 46.3283 139.987 46.9429L138.982 49.4012C138.068 48.7866 137.103 48.3462 136.088 48.0799C135.073 47.793 134.088 47.6496 133.134 47.6496C131.936 47.6496 130.951 47.8033 130.179 48.1106C129.408 48.4179 128.839 48.8276 128.474 49.3397C128.129 49.8519 127.956 50.4255 127.956 51.0606C127.956 51.8185 128.189 52.4229 128.657 52.8736C129.144 53.3242 129.763 53.6828 130.514 53.9491C131.286 54.2154 132.129 54.4612 133.042 54.6866C133.956 54.8914 134.87 55.127 135.784 55.3933C136.718 55.6596 137.56 56.0079 138.312 56.4381C139.083 56.8683 139.703 57.4419 140.17 58.1589C140.637 58.8759 140.87 59.7978 140.87 60.9245C140.87 62.0103 140.576 63.0243 139.987 63.9667C139.398 64.8885 138.484 65.6363 137.246 66.2099C136.027 66.763 134.484 67.0396 132.616 67.0396Z" fill="white"/>
</svg>
