<svg width="68" height="55" viewBox="0 0 68 55" fill="none" xmlns="http://www.w3.org/2000/svg">
<path d="M34.5269 42.8709C42.7365 42.8709 49.4062 36.1305 49.69 27.7092C49.4062 19.288 42.7365 12.5476 34.5269 12.5476C26.3184 12.5476 19.6467 19.288 19.3667 27.7092C19.6458 36.1305 26.3174 42.8709 34.5269 42.8709Z" fill="white" fill-opacity="0.8"/>
<path d="M34.5287 4.18256C21.5359 4.18256 11.0015 14.7159 11.0015 27.7088C11.0015 40.7006 21.5369 51.235 34.5287 51.235C47.5205 51.235 58.0549 40.7006 58.0549 27.7088C58.0549 14.7159 47.5205 4.18256 34.5287 4.18256ZM34.5277 44.8187C25.0776 44.8187 17.4166 37.4176 17.4166 28.2851C17.4166 28.0905 17.4434 27.9012 17.4498 27.7088C17.4434 27.5163 17.4166 27.3259 17.4166 27.1324C17.4166 17.9999 25.0787 10.5988 34.5277 10.5988C43.9777 10.5988 51.6376 17.9999 51.6376 27.1324C51.6376 27.3259 51.6152 27.5163 51.6098 27.7088C51.6162 27.9012 51.6376 28.0905 51.6376 28.2851C51.6366 37.4176 43.9777 44.8187 34.5277 44.8187Z" fill="white" fill-opacity="0.8"/>
<path d="M1.62957 0.463202C1.89357 -0.571896 2.41606 0.451101 2.41606 0.451101C2.41606 0.451101 2.59866 11.1651 3.78666 11.2817C4.97466 11.3983 4.05946 0.257502 5.46526 0.0441025C6.77205 -0.163797 6.02626 11.4588 7.21645 11.3411C8.40225 11.2157 8.60245 0.506101 8.60245 0.506101C8.60245 0.506101 9.13045 -0.515796 9.39115 0.511602C12.6119 13.1726 10.006 18.3481 10.006 18.3481C10.006 18.3481 9.56605 19.436 8.52105 19.4415C8.42315 19.436 8.49685 49.511 8.49025 53.5546C8.49245 55.5203 2.44026 55.4598 2.44356 53.5029C2.44796 49.4593 2.56566 19.3876 2.47106 19.3898C1.42277 19.3898 0.983868 18.303 0.983868 18.303C0.983868 18.303 -1.61213 13.1308 1.62957 0.463202Z" fill="white" fill-opacity="0.8"/>
<path d="M60.7367 2.09568e-06C62.0985 -0.0032979 67.7481 4.06999 67.7547 19.2082C67.7613 24.0492 65.1202 24.0481 65.1246 27.0764C65.129 30.0992 65.1455 54.143 65.1455 54.143C65.1455 54.143 62.2481 56.1307 60.0943 54.0506L60.0547 0.430101C60.0569 0.431201 60.0492 -0.0010979 60.7367 2.09568e-06Z" fill="white" fill-opacity="0.8"/>
</svg>
