<svg width="35" height="55" viewBox="0 0 35 55" fill="none" xmlns="http://www.w3.org/2000/svg">
<path d="M19.4444 47.0171C19.4444 51.4276 15.0889 55 9.72222 55C4.35556 55 0 51.4276 0 47.0171C0 42.6065 4.35556 39.0341 9.72222 39.0341C15.0889 39.0341 19.4444 42.6065 19.4444 47.0171Z" fill="white" fill-opacity="0.8"/>
<path fill-rule="evenodd" clip-rule="evenodd" d="M19.4446 7.10239V47.0171H15.5557V7.10239H19.4446Z" fill="white" fill-opacity="0.8"/>
<path d="M15.5557 6.38394C15.5562 5.46154 15.868 4.5678 16.438 3.85469C17.008 3.14157 17.8011 2.65309 18.6823 2.4723L30.349 0.0774192C30.913 -0.0382803 31.4949 -0.0241476 32.0529 0.118799C32.611 0.261746 33.1311 0.529949 33.576 0.904083C34.0209 1.27822 34.3793 1.74897 34.6256 2.28242C34.8719 2.81588 34.9998 3.39876 35.0001 3.98906V11.0939L15.5557 15.0853V6.38394Z" fill="white" fill-opacity="0.8"/>
</svg>
