<svg width="30" height="30" viewBox="0 0 30 30" fill="none" xmlns="http://www.w3.org/2000/svg">
<path d="M15 28.25C22.1797 28.25 28 22.4297 28 15.25C28 8.0703 22.1797 2.25 15 2.25M15 28.25C7.8203 28.25 2 22.4297 2 15.25C2 8.0703 7.8203 2.25 15 2.25M15 28.25C18.5455 28.25 19.7273 22.3409 19.7273 15.25C19.7273 8.15909 18.5455 2.25 15 2.25M15 28.25C11.4545 28.25 10.2727 22.3409 10.2727 15.25C10.2727 8.15909 11.4545 2.25 15 2.25M3.18182 19.9773H26.8182M3.18182 10.5227H26.8182" stroke="black" stroke-width="3"/>
</svg>
